# xmcd CD database file
#
# Track frame offsets:
#	183
#	17058
#	39995
#	58720
#	87753
#	115245
#
# Disc length: 1889 seconds
#
# Revision: 4
# Processed by: cddbd v1.5.2PL0 Copyright (c) Steve Scherf et al.
# Submitted via: CDex 1.82
#
DISCID=41075f06
DTITLE=Ce Ce Peniston - Keep On Walkin' (Single)
DYEAR=1992
DGENRE=Dance
TTITLE0=Keep on Walkin' (7" Version)
TTITLE1=Keep on Walkin' (12" Original Mix)
TTITLE2=Keep on Walkin' (Silky Soul 7")
TTITLE3=Keep on Walkin' (Silky Soul 12")
TTITLE4=Keep on Walkin' (Maurice's Undergroud Vox)
TTITLE5=Keep on Walkin' (Silky Soul Dub)
EXTD=YEAR: 1992
EXTT0=
EXTT1=
EXTT2=
EXTT3=
EXTT4=
EXTT5=
PLAYORDER=
